<mxfile host="Electron" modified="2024-02-05T15:20:33.855Z" agent="Mozilla/5.0 (X11; Linux x86_64) AppleWebKit/537.36 (KHTML, like Gecko) draw.io/23.0.2 Chrome/120.0.6099.109 Electron/28.1.0 Safari/537.36" etag="U1cbV1zfgSBBFDpM6TYT" version="23.0.2" type="device">
  <diagram name="Page-1" id="x45XZfGYX57E206BUSX4">
    <mxGraphModel dx="989" dy="576" grid="1" gridSize="10" guides="1" tooltips="1" connect="1" arrows="1" fold="1" page="1" pageScale="1" pageWidth="850" pageHeight="1100" math="0" shadow="0">
      <root>
        <mxCell id="0" />
        <mxCell id="1" parent="0" />
        <mxCell id="Vfzyvi4p-2ZKuOf08ouw-1" value="" style="rounded=0;whiteSpace=wrap;html=1;" vertex="1" parent="1">
          <mxGeometry x="160" y="280" width="560" height="200" as="geometry" />
        </mxCell>
        <mxCell id="Vfzyvi4p-2ZKuOf08ouw-2" value="&lt;font style=&quot;font-size: 17px;&quot;&gt;wt_blk&lt;/font&gt;" style="text;html=1;strokeColor=none;fillColor=none;align=center;verticalAlign=middle;whiteSpace=wrap;rounded=0;" vertex="1" parent="1">
          <mxGeometry x="160" y="280" width="60" height="30" as="geometry" />
        </mxCell>
        <mxCell id="Vfzyvi4p-2ZKuOf08ouw-3" value="&lt;font style=&quot;font-size: 30px;&quot;&gt;Blk (binary)&lt;/font&gt;" style="rounded=0;whiteSpace=wrap;html=1;" vertex="1" parent="1">
          <mxGeometry x="200" y="40" width="480" height="120" as="geometry" />
        </mxCell>
        <mxCell id="Vfzyvi4p-2ZKuOf08ouw-4" value="WarThunder" style="text;html=1;strokeColor=none;fillColor=none;align=center;verticalAlign=middle;whiteSpace=wrap;rounded=0;" vertex="1" parent="1">
          <mxGeometry x="200" y="40" width="80" height="30" as="geometry" />
        </mxCell>
        <mxCell id="Vfzyvi4p-2ZKuOf08ouw-5" value="&lt;font style=&quot;font-size: 30px;&quot;&gt;Internal binary representation&lt;/font&gt;" style="rounded=0;whiteSpace=wrap;html=1;" vertex="1" parent="1">
          <mxGeometry x="200" y="320" width="480" height="120" as="geometry" />
        </mxCell>
        <mxCell id="Vfzyvi4p-2ZKuOf08ouw-7" value="" style="endArrow=classic;html=1;rounded=0;exitX=0.5;exitY=0;exitDx=0;exitDy=0;entryX=0.5;entryY=1;entryDx=0;entryDy=0;fillColor=#a20025;strokeColor=#6F0000;dashed=1;dashPattern=8 8;" edge="1" parent="1" source="Vfzyvi4p-2ZKuOf08ouw-5" target="Vfzyvi4p-2ZKuOf08ouw-3">
          <mxGeometry width="50" height="50" relative="1" as="geometry">
            <mxPoint x="280" y="310" as="sourcePoint" />
            <mxPoint x="440" y="200" as="targetPoint" />
          </mxGeometry>
        </mxCell>
        <mxCell id="Vfzyvi4p-2ZKuOf08ouw-8" value="binary serialization" style="edgeLabel;html=1;align=center;verticalAlign=middle;resizable=0;points=[];" vertex="1" connectable="0" parent="Vfzyvi4p-2ZKuOf08ouw-7">
          <mxGeometry x="0.0623" y="-3" relative="1" as="geometry">
            <mxPoint as="offset" />
          </mxGeometry>
        </mxCell>
        <mxCell id="Vfzyvi4p-2ZKuOf08ouw-9" value="" style="endArrow=classic;html=1;rounded=0;exitX=0.25;exitY=1;exitDx=0;exitDy=0;entryX=0.25;entryY=0;entryDx=0;entryDy=0;fillColor=#008a00;strokeColor=#005700;" edge="1" parent="1" source="Vfzyvi4p-2ZKuOf08ouw-3" target="Vfzyvi4p-2ZKuOf08ouw-5">
          <mxGeometry width="50" height="50" relative="1" as="geometry">
            <mxPoint x="280" y="310" as="sourcePoint" />
            <mxPoint x="280" y="210" as="targetPoint" />
          </mxGeometry>
        </mxCell>
        <mxCell id="Vfzyvi4p-2ZKuOf08ouw-10" value="binary deserialization" style="edgeLabel;html=1;align=center;verticalAlign=middle;resizable=0;points=[];" vertex="1" connectable="0" parent="Vfzyvi4p-2ZKuOf08ouw-9">
          <mxGeometry x="-0.1529" y="2" relative="1" as="geometry">
            <mxPoint as="offset" />
          </mxGeometry>
        </mxCell>
        <mxCell id="Vfzyvi4p-2ZKuOf08ouw-11" value="&lt;font style=&quot;font-size: 30px;&quot;&gt;Human-readable JSON/BlkText&lt;/font&gt;" style="rounded=0;whiteSpace=wrap;html=1;" vertex="1" parent="1">
          <mxGeometry x="200" y="600" width="480" height="120" as="geometry" />
        </mxCell>
        <mxCell id="Vfzyvi4p-2ZKuOf08ouw-12" value="" style="endArrow=classic;html=1;rounded=0;exitX=0.25;exitY=1;exitDx=0;exitDy=0;entryX=0.25;entryY=0;entryDx=0;entryDy=0;fillColor=#008a00;strokeColor=#005700;" edge="1" parent="1" source="Vfzyvi4p-2ZKuOf08ouw-5" target="Vfzyvi4p-2ZKuOf08ouw-11">
          <mxGeometry width="50" height="50" relative="1" as="geometry">
            <mxPoint x="550" y="390" as="sourcePoint" />
            <mxPoint x="600" y="340" as="targetPoint" />
          </mxGeometry>
        </mxCell>
        <mxCell id="Vfzyvi4p-2ZKuOf08ouw-14" value="Json serialization&lt;br&gt;BlkText serialization" style="edgeLabel;html=1;align=center;verticalAlign=middle;resizable=0;points=[];" vertex="1" connectable="0" parent="Vfzyvi4p-2ZKuOf08ouw-12">
          <mxGeometry x="-0.12" relative="1" as="geometry">
            <mxPoint as="offset" />
          </mxGeometry>
        </mxCell>
        <mxCell id="Vfzyvi4p-2ZKuOf08ouw-15" value="" style="endArrow=classic;html=1;rounded=0;exitX=0.5;exitY=0;exitDx=0;exitDy=0;entryX=0.5;entryY=1;entryDx=0;entryDy=0;fillColor=#a20025;strokeColor=#6F0000;" edge="1" parent="1" source="Vfzyvi4p-2ZKuOf08ouw-11" target="Vfzyvi4p-2ZKuOf08ouw-5">
          <mxGeometry width="50" height="50" relative="1" as="geometry">
            <mxPoint x="460" y="550" as="sourcePoint" />
            <mxPoint x="600" y="340" as="targetPoint" />
          </mxGeometry>
        </mxCell>
        <mxCell id="Vfzyvi4p-2ZKuOf08ouw-16" value="Json deserialization&lt;br&gt;(non-merged)" style="edgeLabel;html=1;align=center;verticalAlign=middle;resizable=0;points=[];" vertex="1" connectable="0" parent="Vfzyvi4p-2ZKuOf08ouw-15">
          <mxGeometry x="0.04" y="1" relative="1" as="geometry">
            <mxPoint as="offset" />
          </mxGeometry>
        </mxCell>
        <mxCell id="Vfzyvi4p-2ZKuOf08ouw-18" value="" style="endArrow=classic;html=1;rounded=0;exitX=0.75;exitY=0;exitDx=0;exitDy=0;entryX=0.75;entryY=1;entryDx=0;entryDy=0;fillColor=#a20025;strokeColor=#6F0000;" edge="1" parent="1" source="Vfzyvi4p-2ZKuOf08ouw-11" target="Vfzyvi4p-2ZKuOf08ouw-5">
          <mxGeometry width="50" height="50" relative="1" as="geometry">
            <mxPoint x="550" y="390" as="sourcePoint" />
            <mxPoint x="600" y="340" as="targetPoint" />
          </mxGeometry>
        </mxCell>
        <mxCell id="Vfzyvi4p-2ZKuOf08ouw-20" value="BlkText deseralization" style="edgeLabel;html=1;align=center;verticalAlign=middle;resizable=0;points=[];" vertex="1" connectable="0" parent="Vfzyvi4p-2ZKuOf08ouw-18">
          <mxGeometry x="0.04" y="1" relative="1" as="geometry">
            <mxPoint as="offset" />
          </mxGeometry>
        </mxCell>
        <mxCell id="Vfzyvi4p-2ZKuOf08ouw-21" value="" style="rounded=0;whiteSpace=wrap;html=1;" vertex="1" parent="1">
          <mxGeometry width="160" height="200" as="geometry" />
        </mxCell>
        <mxCell id="Vfzyvi4p-2ZKuOf08ouw-22" value="Legend" style="text;html=1;strokeColor=none;fillColor=none;align=center;verticalAlign=middle;whiteSpace=wrap;rounded=0;" vertex="1" parent="1">
          <mxGeometry width="60" height="30" as="geometry" />
        </mxCell>
        <mxCell id="Vfzyvi4p-2ZKuOf08ouw-23" value="" style="endArrow=classic;html=1;rounded=0;elbow=horizontal;fillColor=#008a00;strokeColor=#005700;" edge="1" parent="1">
          <mxGeometry width="50" height="50" relative="1" as="geometry">
            <mxPoint x="30" y="60" as="sourcePoint" />
            <mxPoint x="130" y="60" as="targetPoint" />
          </mxGeometry>
        </mxCell>
        <mxCell id="Vfzyvi4p-2ZKuOf08ouw-25" value="Implemented" style="text;html=1;strokeColor=none;fillColor=none;align=center;verticalAlign=middle;whiteSpace=wrap;rounded=0;" vertex="1" parent="1">
          <mxGeometry x="50" y="40" width="60" height="20" as="geometry" />
        </mxCell>
        <mxCell id="Vfzyvi4p-2ZKuOf08ouw-26" value="" style="endArrow=classic;html=1;rounded=0;elbow=horizontal;fillColor=#a20025;strokeColor=#6F0000;" edge="1" parent="1">
          <mxGeometry width="50" height="50" relative="1" as="geometry">
            <mxPoint x="30" y="100" as="sourcePoint" />
            <mxPoint x="130" y="100" as="targetPoint" />
          </mxGeometry>
        </mxCell>
        <mxCell id="Vfzyvi4p-2ZKuOf08ouw-27" value="Planned" style="text;html=1;strokeColor=none;fillColor=none;align=center;verticalAlign=middle;whiteSpace=wrap;rounded=0;" vertex="1" parent="1">
          <mxGeometry x="50" y="80" width="60" height="20" as="geometry" />
        </mxCell>
        <mxCell id="Vfzyvi4p-2ZKuOf08ouw-30" value="" style="endArrow=classic;html=1;rounded=0;elbow=horizontal;fillColor=#a20025;strokeColor=#6F0000;dashed=1;dashPattern=12 12;" edge="1" parent="1">
          <mxGeometry width="50" height="50" relative="1" as="geometry">
            <mxPoint x="30" y="150" as="sourcePoint" />
            <mxPoint x="130" y="150" as="targetPoint" />
          </mxGeometry>
        </mxCell>
        <mxCell id="Vfzyvi4p-2ZKuOf08ouw-31" value="Work in progress" style="text;html=1;strokeColor=none;fillColor=none;align=center;verticalAlign=middle;whiteSpace=wrap;rounded=0;" vertex="1" parent="1">
          <mxGeometry x="30" y="130" width="100" height="20" as="geometry" />
        </mxCell>
      </root>
    </mxGraphModel>
  </diagram>
</mxfile>
